<?xml version="1.0" standalone="no"?>
<!DOCTYPE svg PUBLIC "-//W3C//DTD SVG 20010904//EN"
 "http://www.w3.org/TR/2001/REC-SVG-20010904/DTD/svg10.dtd">
<svg version="1.0" xmlns="http://www.w3.org/2000/svg"
 width="1608.000000pt" height="1608.000000pt" viewBox="0 0 1608.000000 1608.000000"
 preserveAspectRatio="xMidYMid meet">
<metadata>
Created by potrace 1.14, written by Peter Selinger 2001-2017
</metadata>
<g transform="translate(0.000000,1608.000000) scale(0.100000,-0.100000)"
fill="#000000" stroke="none">
<path d="M8932 11613 c-5 -16 -600 -1647 -1321 -3626 -721 -1979 -1311 -3600
-1311 -3602 0 -3 226 -4 502 -3 l502 3 859 2355 c471 1295 1066 2928 1321
3628 l464 1272 -503 0 -503 0 -10 -27z"/>
<path d="M11640 9477 l0 -544 1401 -488 c771 -268 1452 -503 1513 -522 61 -19
114 -38 119 -42 4 -4 -43 -22 -105 -41 -62 -18 -727 -251 -1478 -518 -751
-266 -1384 -491 -1407 -499 l-43 -15 0 -544 c0 -299 3 -544 6 -544 6 0 4015
1673 4078 1701 l26 12 -2 440 -3 440 -2050 854 c-1127 469 -2050 853 -2052
853 -2 0 -3 -244 -3 -543z"/>
<path d="M2325 9162 c-1084 -466 -1976 -851 -1982 -855 -10 -6 -13 -106 -13
-442 0 -337 3 -434 13 -438 6 -3 896 -386 1977 -852 1081 -466 1971 -849 1978
-852 9 -4 12 109 12 549 l0 553 -1302 468 c-717 257 -1365 488 -1440 514 -76
27 -138 50 -138 53 0 3 55 25 123 49 67 24 703 255 1412 513 710 259 1302 475
1318 480 l27 10 0 549 c0 302 -3 549 -7 549 -5 -1 -894 -382 -1978 -848z"/>
</g>
</svg>
